<svg xmlns="http://www.w3.org/2000/svg" xmlns:xlink="http://www.w3.org/1999/xlink" width="426" height="368" style=""><rect id="backgroundrect" width="100%" height="100%" x="0" y="0" fill="none" stroke="none" style="" class=""/>


<g class="currentLayer" style=""><title>Layer 1</title><g class="selected" fill-opacity="1" fill="#33c4e8"><path fill-rule="evenodd" fill="#33c4e8" d="M238.50237832035106,31.220436196666498 C238.50237832035106,48.46395850386364 224.52459565204722,62.4417411721675 207.28194212368453,62.4417411721675 C190.03928859532195,62.4417411721675 176.0606371481836,48.46395850386364 176.0606371481836,31.220436196666498 C176.0606371481836,13.977782668303854 190.03928859532195,0 207.28194212368453,0 C224.52459565204722,0 238.50237832035106,13.977782668303854 238.50237832035106,31.220436196666498 " id="svg_1" class="" fill-opacity="1"/><path fill-rule="evenodd" fill-opacity="1" fill="#33c4e8" d="M60.42356793945412,200.4307522349663 C60.42356793945412,190.15831129581377 57.316814827274705,182.44789913960784 51.09635837223985,177.30559721819012 C44.87677069603952,172.17198308511732 37.905689327994885,169.5951850619842 30.214390306148037,169.5951850619842 C22.509190822949154,169.5951850619842 15.554616252760061,172.17198308511732 9.335028576559717,177.30559721819012 C3.1154409003593746,182.44789913960784 -1.6505911828307296e-10,190.15831129581377 -1.6505911828307296e-10,200.4307522349663 L-1.6505911828307296e-10,244.56384824883705 C-1.6505911828307296e-10,311.3937913140746 53.651436924510456,365.7628395560488 119.59783191505933,365.7628395560488 C155.11003555416607,365.7628395560488 187.04026405862078,349.9806032484841 208.96216038961157,324.99452396820453 C230.8875318359404,349.9806032484841 262.8151540038916,365.7628395560488 298.3264888641638,365.7628395560488 C364.2737526335472,365.7628395560488 417.9251895582227,311.3937913140746 417.9251895582227,244.56384824883705 L417.9251895582227,36.68853018102254 C417.9251895582227,19.769062379094674 404.3861402013424,6.05191336114144 387.6890797810471,6.05191336114144 C370.9920193607517,6.05191336114144 357.45557634037493,19.769062379094674 357.45557634037493,36.68853018102254 L357.45557634037493,244.56384824883705 C357.45557634037493,277.6061136614544 330.93002096535764,304.4861308009486 298.3264888641638,304.4861308009486 C265.72121920530105,304.4861308009486 239.19827016678724,277.6061136614544 239.19827016678724,244.56384824883705 L239.19827016678724,118.2164735683661 C239.19827016678724,101.2952682087692 225.65922080990697,87.57638163314697 208.96216038961157,87.57638163314697 C192.26509996931622,87.57638163314697 178.72952572777396,101.2952682087692 178.72952572777396,118.2164735683661 L178.72952572777396,244.56384824883705 C178.72952572777396,277.6061136614544 152.20397035275664,304.4861308009486 119.59783191505933,304.4861308009486 C86.99429981386552,304.4861308009486 60.469613217682735,277.6061136614544 60.469613217682735,244.56384824883705 " id="svg_2" class=""/></g></g></svg>