<svg version="1.1" id="Layer_1" xmlns="http://www.w3.org/2000/svg" xmlns:xlink="http://www.w3.org/1999/xlink" x="0px" y="0px"
	 width="100%" viewBox="0 0 2000 1500" enable-background="new 0 0 2000 1500" xml:space="preserve">
<path fill="#282634" opacity="1.000000" stroke="none" 
	d="
M1408.000000,1501.000000 
	C938.666809,1501.000000 469.833618,1501.000000 1.000314,1501.000000 
	C1.000210,1001.000305 1.000210,501.000580 1.000105,1.000650 
	C667.666199,1.000433 1334.332397,1.000433 2000.998901,1.000217 
	C2000.999268,500.999359 2000.999268,1000.998718 2000.999634,1500.999023 
	C1803.500000,1501.000000 1606.000000,1501.000000 1408.000000,1501.000000 
M1364.880737,336.944702 
	C1364.891235,337.777435 1364.910767,338.610168 1364.910767,339.442902 
	C1364.912354,613.126465 1364.912598,886.810059 1364.906860,1160.493652 
	C1364.906860,1161.990723 1364.820923,1163.487793 1364.474121,1165.267578 
	C1364.282715,1165.468262 1364.122681,1165.691406 1363.068848,1166.093506 
	C1362.404907,1166.110352 1361.740845,1166.142090 1361.076904,1166.142090 
	C1086.931519,1166.145142 812.786194,1166.146606 538.640808,1166.135376 
	C537.037354,1166.135254 535.433838,1165.956787 533.324829,1165.831543 
	C533.324829,1163.459839 533.324829,1161.495239 533.324829,1159.530518 
	C533.324402,1128.866211 533.252075,1098.201660 533.408630,1067.538208 
	C533.429749,1063.401245 532.260864,1062.103027 528.078186,1062.193970 
	C516.084778,1062.454834 504.082062,1062.285278 492.083008,1062.284912 
	C488.633392,1062.284912 485.183777,1062.285034 481.527771,1062.285034 
	C481.527771,1114.523804 481.527771,1166.065430 481.527771,1217.691895 
	C793.449341,1217.691895 1105.003906,1217.691895 1416.626465,1217.691895 
	C1416.626465,906.025940 1416.626465,594.668396 1416.626465,283.359314 
	C1104.705322,283.359314 793.157837,283.359314 481.430237,283.359314 
	C481.430237,335.137573 481.430237,386.556244 481.430237,438.331604 
	C498.738373,438.331604 515.776611,438.331604 533.472290,438.331604 
	C533.472290,403.718658 533.472290,369.482666 533.472290,334.852417 
	C536.276184,334.852417 538.424255,334.852417 540.572327,334.852417 
	C812.884460,334.852417 1085.196655,334.851959 1357.508789,334.861145 
	C1359.670654,334.861237 1361.832397,334.992889 1364.210693,335.414551 
	C1364.373901,335.638000 1364.562134,335.837982 1364.880737,336.944702 
M878.902283,1000.601746 
	C886.006836,1005.818909 892.768311,1011.602600 900.278625,1016.149597 
	C925.324524,1031.312988 952.900208,1037.894653 981.947998,1039.215210 
	C1002.616821,1040.154663 1023.188354,1039.887451 1043.598511,1035.997559 
	C1081.809204,1028.715088 1114.023682,1011.104492 1138.535767,980.509583 
	C1161.241089,952.169678 1170.825806,919.003662 1170.940918,883.392639 
	C1171.390503,744.237854 1171.199341,605.080933 1171.226440,465.924835 
	C1171.226685,464.501678 1170.955566,463.078461 1170.816040,461.703979 
	C1143.660889,461.703979 1116.958618,461.703979 1089.948486,461.703979 
	C1089.948486,464.310120 1089.948608,466.464813 1089.948608,468.619476 
	C1089.948608,604.109619 1089.979492,739.599731 1089.867554,875.089783 
	C1089.861084,882.825989 1088.987549,890.600159 1087.998047,898.289795 
	C1084.841675,922.817200 1071.734497,940.990417 1050.794189,953.306030 
	C1032.020142,964.347656 1011.480225,967.647217 989.798401,965.146179 
	C973.405884,963.255310 958.423279,958.136292 945.188049,948.255615 
	C923.489624,932.056824 912.581116,910.285217 912.100525,883.275391 
	C911.956299,875.172668 912.078125,867.065186 912.078125,859.031616 
	C884.582092,859.031616 857.865479,859.031616 830.820862,859.031616 
	C830.648376,880.273804 830.599854,900.995911 834.955688,921.503296 
	C841.465698,952.152832 854.711670,978.993652 878.902283,1000.601746 
z"/>
<path fill="#FF4057" opacity="1.000000" stroke="none" 
	d="
M1364.775146,1164.984863 
	C1364.820923,1163.487793 1364.906860,1161.990723 1364.906860,1160.493652 
	C1364.912598,886.810059 1364.912354,613.126465 1364.910767,339.442902 
	C1364.910767,338.610168 1364.891235,337.777435 1364.851929,336.223877 
	C1364.546875,335.356415 1364.270508,335.209778 1363.994263,335.063110 
	C1361.832397,334.992889 1359.670654,334.861237 1357.508789,334.861145 
	C1085.196655,334.851959 812.884460,334.852417 540.572327,334.852417 
	C538.424255,334.852417 536.276184,334.852417 533.472290,334.852417 
	C533.472290,369.482666 533.472290,403.718658 533.472290,438.331604 
	C515.776611,438.331604 498.738373,438.331604 481.430237,438.331604 
	C481.430237,386.556244 481.430237,335.137573 481.430237,283.359314 
	C793.157837,283.359314 1104.705322,283.359314 1416.626465,283.359314 
	C1416.626465,594.668396 1416.626465,906.025940 1416.626465,1217.691895 
	C1105.003906,1217.691895 793.449341,1217.691895 481.527771,1217.691895 
	C481.527771,1166.065430 481.527771,1114.523804 481.527771,1062.285034 
	C485.183777,1062.285034 488.633392,1062.284912 492.083008,1062.284912 
	C504.082062,1062.285278 516.084778,1062.454834 528.078186,1062.193970 
	C532.260864,1062.103027 533.429749,1063.401245 533.408630,1067.538208 
	C533.252075,1098.201660 533.324402,1128.866211 533.324829,1159.530518 
	C533.324829,1161.495239 533.324829,1163.459839 533.324829,1165.831543 
	C535.433838,1165.956787 537.037354,1166.135254 538.640808,1166.135376 
	C812.786194,1166.146606 1086.931519,1166.145142 1361.076904,1166.142090 
	C1361.740845,1166.142090 1362.404907,1166.110352 1363.787842,1165.997437 
	C1364.596191,1165.595825 1364.685669,1165.290405 1364.775146,1164.984863 
z"/>
<path fill="#FF4057" opacity="1.000000" stroke="none" 
	d="
M878.640869,1000.362610 
	C854.711670,978.993652 841.465698,952.152832 834.955688,921.503296 
	C830.599854,900.995911 830.648376,880.273804 830.820862,859.031616 
	C857.865479,859.031616 884.582092,859.031616 912.078125,859.031616 
	C912.078125,867.065186 911.956299,875.172668 912.100525,883.275391 
	C912.581116,910.285217 923.489624,932.056824 945.188049,948.255615 
	C958.423279,958.136292 973.405884,963.255310 989.798401,965.146179 
	C1011.480225,967.647217 1032.020142,964.347656 1050.794189,953.306030 
	C1071.734497,940.990417 1084.841675,922.817200 1087.998047,898.289795 
	C1088.987549,890.600159 1089.861084,882.825989 1089.867554,875.089783 
	C1089.979492,739.599731 1089.948608,604.109619 1089.948608,468.619476 
	C1089.948608,466.464813 1089.948486,464.310120 1089.948486,461.703979 
	C1116.958618,461.703979 1143.660889,461.703979 1170.816040,461.703979 
	C1170.955566,463.078461 1171.226685,464.501678 1171.226440,465.924835 
	C1171.199341,605.080933 1171.390503,744.237854 1170.940918,883.392639 
	C1170.825806,919.003662 1161.241089,952.169678 1138.535767,980.509583 
	C1114.023682,1011.104492 1081.809204,1028.715088 1043.598511,1035.997559 
	C1023.188354,1039.887451 1002.616821,1040.154663 981.947998,1039.215210 
	C952.900208,1037.894653 925.324524,1031.312988 900.278625,1016.149597 
	C892.768311,1011.602600 886.006836,1005.818909 878.640869,1000.362610 
z"/>
<path fill="#482A39" opacity="1.000000" stroke="none" 
	d="
M1364.102539,335.238831 
	C1364.270508,335.209778 1364.546875,335.356415 1364.799072,335.758759 
	C1364.562134,335.837982 1364.373901,335.638000 1364.102539,335.238831 
z"/>
<path fill="#482A39" opacity="1.000000" stroke="none" 
	d="
M1364.624634,1165.126221 
	C1364.685669,1165.290405 1364.596191,1165.595825 1364.250488,1165.919189 
	C1364.122681,1165.691406 1364.282715,1165.468262 1364.624634,1165.126221 
z"/>
</svg>